<?xml version="1.0" encoding="utf-8"?>
<!-- Generator: Adobe Illustrator 25.0.0, SVG Export Plug-In . SVG Version: 6.00 Build 0)  -->
<svg version="1.1" id="Слой_1" xmlns="http://www.w3.org/2000/svg" xmlns:xlink="http://www.w3.org/1999/xlink" x="0px" y="0px"
	 viewBox="0 0 36 36" style="enable-background:new 0 0 36 36;" xml:space="preserve">
<style type="text/css">
	.st0{fill:#F3F3F1;}
	.st1{fill:#ECA442;}
	.st2{fill:#D5DBE1;}
	.st3{fill:#976929;}
</style>
<g>
	<path class="st0" d="M29,35V14H7v21h6l0-5.2c0-2.4,1.6-4.7,4-5.2c3.2-0.7,6,1.9,6,5.1V35H29z"/>
	<path class="st1" d="M28,4V1h7v7H1V1h7v3h6V1h8v3H28z"/>
	<path class="st0" d="M35.3,8l-6,6H6.8l-6-6H35.3z"/>
	<path class="st1" d="M10,17h4v4h-4V17z"/>
	<path class="st1" d="M21,17h4v4h-4V17z"/>
	<path class="st2" d="M7,14h3v21H7V14z"/>
	<path class="st2" d="M23.4,25.4c-1.6-1.1-2.9-1-4.1-0.7c2.2,0.6,3.8,2.6,3.8,5V35h3l0-4.4C26,28.5,25.1,26.6,23.4,25.4z"/>
	<path class="st3" d="M1,1h3v7H1V1z"/>
	<path class="st2" d="M0.8,8l6,6h3l-6-6H0.8z"/>
	<path class="st3" d="M10,17h3v4h-3V17z"/>
	<path class="st3" d="M20,17h3v4h-3V17z"/>
	<path d="M29.3,36h-5.5c-0.4,0-0.7-0.3-0.7-0.7l0-5.1c0-2.2-1.4-4.1-3.6-4.6C16.6,25,14,27.2,14,30v5.2c0,0.4-0.3,0.7-0.7,0.7H6.7
		C6.3,36,6,35.7,6,35.2V14.7C6,14.3,6.3,14,6.7,14h22.5c0.4,0,0.7,0.3,0.7,0.7v20.5C30,35.7,29.7,36,29.3,36z M24,34h5V15H8v19h4
		l0-4.3c0-2.8,1.9-5.4,4.7-6c3.9-0.8,7.3,2.1,7.3,5.9V34z"/>
	<path d="M35.3,9H0.7C0.3,9,0,8.7,0,8.2V0.7C0,0.3,0.3,0,0.7,0h7.5C8.7,0,9,0.3,9,0.7V3h4V0.7C13.5,0.3,13.8,0,14.3,0h7.5
		c0.4,0,0.7,0.3,1.2,0.7V3h4V0.7C27,0.3,27.3,0,27.8,0h7.5C35.7,0,36,0.3,36,0.7v7.5C36,8.7,35.7,9,35.3,9z M2,8h33V2h-7v2.2
		C28,4.7,27.7,5,27.3,5h-5.5C21.3,5,21,4.7,21,4.2V2h-6v2.2C15,4.7,14.7,5,14.3,5H8.8C8.3,5,8,4.7,8,4.2V2H2V8z"/>
	<path d="M6.8,15c-0.2,0-0.4-0.1-0.5-0.2l-6-6c-0.3-0.3-0.3-0.8,0-1.1c0.3-0.3,0.8-0.3,1.1,0l6,6c0.3,0.3,0.3,0.8,0,1.1
		C7.1,14.9,6.9,15,6.8,15z"/>
	<path d="M29.3,15c-0.2,0-0.4-0.1-0.5-0.2c-0.3-0.3-0.3-0.8,0-1.1l6-6c0.3-0.3,0.8-0.3,1.1,0c0.3,0.3,0.3,0.8,0,1.1l-6,6
		C29.6,14.9,29.4,15,29.3,15z"/>
	<path d="M14.3,23H9.7C9.3,23,9,22.7,9,22.2v-4.5C9,17.3,9.3,17,9.7,17h4.5c0.4,0,0.7,0.3,0.7,0.7v4.5C15,22.7,14.7,23,14.3,23z
		 M11,21h3v-3h-3V21z"/>
	<path d="M25.3,23h-4.5c-0.4,0-0.7-0.3-0.7-0.7v-4.5c0-0.4,0.3-0.7,0.7-0.7h4.5c0.4,0,0.7,0.3,0.7,0.7v4.5C26,22.7,25.7,23,25.3,23z
		 M21,21h3v-3h-3V21z"/>
</g>
</svg>
