<svg viewBox="0 0 473.81 473.81" xmlns="http://www.w3.org/2000/svg" xmlns:xlink="http://www.w3.org/1999/xlink"><style>:root&gt;svg{display:none}:root&gt;svg:target{display:block}</style><svg version="1.1" id="favicon" x="0" y="0" viewBox="0 0 36 36" xml:space="preserve" xmlns="http://www.w3.org/2000/svg"><style>.ast0{fill:#f3f3f1}.ast1{fill:#eca442}.ast2{fill:#d5dbe1}.ast3{fill:#976929}</style><path class="ast0" d="M29 35V14H7v21h6v-5.2c0-2.4 1.6-4.7 4-5.2 3.2-.7 6 1.9 6 5.1V35h6z"/><path class="ast1" d="M28 4V1h7v7H1V1h7v3h6V1h8v3h6z"/><path class="ast0" d="M35.3 8l-6 6H6.8l-6-6h34.5z"/><path class="ast1" d="M10 17h4v4h-4v-4zm11 0h4v4h-4v-4z"/><path class="ast2" d="M7 14h3v21H7V14zm16.4 11.4c-1.6-1.1-2.9-1-4.1-.7 2.2.6 3.8 2.6 3.8 5V35h3v-4.4c-.1-2.1-1-4-2.7-5.2z"/><path class="ast3" d="M1 1h3v7H1V1z"/><path class="ast2" d="M.8 8l6 6h3l-6-6h-3z"/><path class="ast3" d="M10 17h3v4h-3v-4zm10 0h3v4h-3v-4z"/><path d="M29.3 36h-5.5c-.4 0-.7-.3-.7-.7v-5.1c0-2.2-1.4-4.1-3.6-4.6C16.6 25 14 27.2 14 30v5.2c0 .4-.3.7-.7.7H6.7c-.4.1-.7-.2-.7-.7V14.7c0-.4.3-.7.7-.7h22.5c.4 0 .7.3.7.7v20.5c.1.5-.2.8-.6.8zM24 34h5V15H8v19h4v-4.3c0-2.8 1.9-5.4 4.7-6 3.9-.8 7.3 2.1 7.3 5.9V34zM35.3 9H.7C.3 9 0 8.7 0 8.2V.7C0 .3.3 0 .7 0h7.5c.5 0 .8.3.8.7V3h4V.7c.5-.4.8-.7 1.3-.7h7.5c.4 0 .7.3 1.2.7V3h4V.7c0-.4.3-.7.8-.7h7.5c.4 0 .7.3.7.7v7.5c0 .5-.3.8-.7.8zM2 8h33V2h-7v2.2c0 .5-.3.8-.7.8h-5.5c-.5 0-.8-.3-.8-.8V2h-6v2.2c0 .5-.3.8-.7.8H8.8c-.5 0-.8-.3-.8-.8V2H2v6z"/><path d="M6.8 15c-.2 0-.4-.1-.5-.2l-6-6C0 8.5 0 8 .3 7.7c.3-.3.8-.3 1.1 0l6 6c.3.3.3.8 0 1.1-.3.1-.5.2-.6.2zm22.5 0c-.2 0-.4-.1-.5-.2-.3-.3-.3-.8 0-1.1l6-6c.3-.3.8-.3 1.1 0 .3.3.3.8 0 1.1l-6 6c-.3.1-.5.2-.6.2zm-15 8H9.7c-.4 0-.7-.3-.7-.8v-4.5c0-.4.3-.7.7-.7h4.5c.4 0 .7.3.7.7v4.5c.1.5-.2.8-.6.8zM11 21h3v-3h-3v3zm14.3 2h-4.5c-.4 0-.7-.3-.7-.7v-4.5c0-.4.3-.7.7-.7h4.5c.4 0 .7.3.7.7v4.5c0 .4-.3.7-.7.7zM21 21h3v-3h-3v3z"/></svg><svg viewBox="0 0 473.806 473.806" id="phone-call" xmlns="http://www.w3.org/2000/svg"><path d="M374.456 293.506c-9.7-10.1-21.4-15.5-33.8-15.5-12.3 0-24.1 5.3-34.2 15.4l-31.6 31.5c-2.6-1.4-5.2-2.7-7.7-4-3.6-1.8-7-3.5-9.9-5.3-29.6-18.8-56.5-43.3-82.3-75-12.5-15.8-20.9-29.1-27-42.6 8.2-7.5 15.8-15.3 23.2-22.8 2.8-2.8 5.6-5.7 8.4-8.5 21-21 21-48.2 0-69.2l-27.3-27.3c-3.1-3.1-6.3-6.3-9.3-9.5-6-6.2-12.3-12.6-18.8-18.6-9.7-9.6-21.3-14.7-33.5-14.7s-24 5.1-34 14.7l-.2.2-34 34.3c-12.8 12.8-20.1 28.4-21.7 46.5-2.4 29.2 6.2 56.4 12.8 74.2 16.2 43.7 40.4 84.2 76.5 127.6 43.8 52.3 96.5 93.6 156.7 122.7 23 10.9 53.7 23.8 88 26 2.1.1 4.3.2 6.3.2 23.1 0 42.5-8.3 57.7-24.8.1-.2.3-.3.4-.5 5.2-6.3 11.2-12 17.5-18.1 4.3-4.1 8.7-8.4 13-12.9 9.9-10.3 15.1-22.3 15.1-34.6 0-12.4-5.3-24.3-15.4-34.3l-54.9-55.1zm35.8 105.3c-.1 0-.1.1 0 0-3.9 4.2-7.9 8-12.2 12.2-6.5 6.2-13.1 12.7-19.3 20-10.1 10.8-22 15.9-37.6 15.9-1.5 0-3.1 0-4.6-.1-29.7-1.9-57.3-13.5-78-23.4-56.6-27.4-106.3-66.3-147.6-115.6-34.1-41.1-56.9-79.1-72-119.9-9.3-24.9-12.7-44.3-11.2-62.6 1-11.7 5.5-21.4 13.8-29.7l34.1-34.1c4.9-4.6 10.1-7.1 15.2-7.1 6.3 0 11.4 3.8 14.6 7l.3.3c6.1 5.7 11.9 11.6 18 17.9 3.1 3.2 6.3 6.4 9.5 9.7l27.3 27.3c10.6 10.6 10.6 20.4 0 31-2.9 2.9-5.7 5.8-8.6 8.6-8.4 8.6-16.4 16.6-25.1 24.4-.2.2-.4.3-.5.5-8.6 8.6-7 17-5.2 22.7l.3.9c7.1 17.2 17.1 33.4 32.3 52.7l.1.1c27.6 34 56.7 60.5 88.8 80.8 4.1 2.6 8.3 4.7 12.3 6.7 3.6 1.8 7 3.5 9.9 5.3.4.2.8.5 1.2.7 3.4 1.7 6.6 2.5 9.9 2.5 8.3 0 13.5-5.2 15.2-6.9l34.2-34.2c3.4-3.4 8.8-7.5 15.1-7.5 6.2 0 11.3 3.9 14.4 7.3l.2.2 55.1 55.1c10.3 10.2 10.3 20.7.1 31.3zm-154.2-286.1c26.2 4.4 50 16.8 69 35.8s31.3 42.8 35.8 69c1.1 6.6 6.8 11.2 13.3 11.2.8 0 1.5-.1 2.3-.2 7.4-1.2 12.3-8.2 11.1-15.6-5.4-31.7-20.4-60.6-43.3-83.5s-51.8-37.9-83.5-43.3c-7.4-1.2-14.3 3.7-15.6 11s3.5 14.4 10.9 15.6zm217.2 96.3c-8.9-52.2-33.5-99.7-71.3-137.5s-85.3-62.4-137.5-71.3c-7.3-1.3-14.2 3.7-15.5 11-1.2 7.4 3.7 14.3 11.1 15.6 46.6 7.9 89.1 30 122.9 63.7 33.8 33.8 55.8 76.3 63.7 122.9 1.1 6.6 6.8 11.2 13.3 11.2.8 0 1.5-.1 2.3-.2 7.3-1.1 12.3-8.1 11-15.4z" fill="#fff"/></svg></svg>