<?xml version="1.0" encoding="utf-8"?><svg viewBox="0 0 512 512" xmlns="http://www.w3.org/2000/svg" xmlns:xlink="http://www.w3.org/1999/xlink"><style>:root>svg{display:none}:root>svg:target{display:block}</style><svg viewBox="0 0 424.98 424.98" id="balance" xmlns="http://www.w3.org/2000/svg"><path d="M241.395 282.304c-1.587-1.738-3.595-3.038-5.67-4.121-4.518-2.356-9.459-3.785-14.365-5.075v38.016c7.963-.9 17.105-3.79 21.286-11.224 1.996-3.551 2.393-7.914 1.58-11.867-.441-2.142-1.352-4.108-2.831-5.729z" class="aactive-path" fill="#F0F0F0"/><path d="M242.604 299.973l.042-.073a4.74 4.74 0 00-.042.073zM184.009 221.532c-1.369 1.999-2.228 4.27-2.465 6.684-.237 2.419-.104 5.11.815 7.387.875 2.17 2.708 3.772 4.6 5.062 2.123 1.444 4.458 2.572 6.836 3.528 1.995.803 4.239 1.571 6.658 2.313v-34.4c-6.111 1.304-12.788 4.088-16.444 9.426zM242.804 299.619c-.05.089-.104.182-.157.28.062-.114.111-.198.157-.28zM243.004 299.263c.013-.024.015-.026 0 0z" class="aactive-path" fill="#F0F0F0"/><path d="M234.753 92.469c32.329-27.158 53.931-88.341 40.637-91.017-17.664-3.557-56.022 12.04-74.562 14.788-26.296 3.175-54.936-28.515-71.012-10.851-13.071 14.362 9.371 66.592 44.482 89.346-104.752 51.484-251.988 309.938 4.873 328.691 355.411 25.949 177.444-280.787 55.582-330.957zm30.523 203.829c-1.093 10.076-6.433 19.188-14.415 25.374-8.428 6.532-18.999 9.57-29.502 10.421v11.133c0 2.979-1.301 5.86-3.531 7.832-3.065 2.712-7.569 3.381-11.289 1.667-3.673-1.69-6.086-5.457-6.086-9.499v-12.168a68.538 68.538 0 01-5.356-1.234c-9.816-2.697-18.921-7.954-25.572-15.732-3.313-3.877-6.014-8.276-7.882-13.025a47.162 47.162 0 01-1.304-3.783c-.345-1.157-.701-2.333-.824-3.539a10.46 10.46 0 011.137-5.889c1.938-3.707 6.022-5.946 10.192-5.574 4.104.364 7.701 3.212 8.993 7.124.398 1.205.668 2.44 1.115 3.632a23.292 23.292 0 001.607 3.431 26.647 26.647 0 004.59 5.875c3.694 3.559 8.399 5.872 13.304 7.248V268.23c-9.591-2.483-19.491-5.69-27.411-11.848-3.849-2.994-7.115-6.714-9.254-11.117-2.257-4.647-3.192-9.824-3.23-14.966-.039-5.221.953-10.396 3.131-15.153 2.04-4.454 4.977-8.453 8.578-11.768 7.7-7.087 17.928-11.04 28.187-12.492v-11.557c0-2.978 1.301-5.86 3.531-7.832 3.066-2.711 7.568-3.381 11.289-1.667 3.672 1.691 6.086 5.457 6.086 9.499v11.494c1.367.172 2.73.378 4.086.624 10.074 1.823 19.927 5.983 27.294 13.246a39.888 39.888 0 018.356 12.009 38.31 38.31 0 011.477 3.824c.396 1.213.794 2.462.983 3.728a10.467 10.467 0 01-.871 5.958c-1.772 3.788-5.746 6.2-9.927 6.021-4.108-.179-7.83-2.854-9.301-6.694-.438-1.142-.657-2.351-1.104-3.49a18.419 18.419 0 00-1.708-3.292c-1.308-2.02-3.003-3.752-4.938-5.179-4.19-3.094-9.272-4.706-14.35-5.607v39.582c6.035 1.445 12.075 3.021 17.857 5.301 8.739 3.446 17.02 8.73 21.79 17.062-.74-1.298-1.46-2.563.025.043 1.458 2.56.762 1.34.03.057 3.795 6.688 5.042 14.685 4.217 22.282z" class="aactive-path" fill="#F0F0F0"/><path d="M242.493 300.169l-.156.278c.036-.063.09-.158.156-.278z" class="aactive-path" fill="#F0F0F0"/></svg><svg viewBox="0 0 512 512" id="eng" xmlns="http://www.w3.org/2000/svg"><path fill="#f0f0f0" d="M0 85.331h512v341.337H0z"/><g fill="#d80027"><path d="M0 127.994h512v42.663H0zM0 213.331h512v42.663H0zM0 298.657h512v42.663H0zM0 383.994h512v42.663H0z"/></g><path fill="#2e52b2" d="M0 85.331h256v183.797H0z"/><g fill="#f0f0f0"><path d="M99.822 160.624l-4.123 12.684H82.363l10.791 7.835-4.123 12.683 10.791-7.835 10.784 7.835-4.122-12.683 10.791-7.835h-13.337zM103.938 219.08l-4.116-12.683-4.123 12.683H82.363l10.791 7.836-4.123 12.683 10.791-7.836 10.784 7.836-4.122-12.683 10.791-7.836zM47.577 219.08l-4.117-12.683-4.123 12.683H26.001l10.791 7.836-4.123 12.683 10.791-7.836 10.785 7.836-4.122-12.683 10.789-7.836zM43.46 160.624l-4.123 12.684H26.001l10.791 7.835-4.123 12.683 10.791-7.835 10.785 7.835-4.122-12.683 10.789-7.835H47.577zM99.822 114.85l-4.123 12.685H82.363l10.791 7.836-4.123 12.683 10.791-7.836 10.784 7.836-4.122-12.683 10.791-7.836h-13.337zM43.46 114.85l-4.123 12.685H26.001l10.791 7.836-4.123 12.683 10.791-7.836 10.785 7.836-4.122-12.683 10.789-7.836H47.577zM156.183 160.624l-4.122 12.684h-13.336l10.79 7.835-4.121 12.683 10.789-7.835 10.786 7.835-4.123-12.683 10.791-7.835h-13.336zM160.301 219.08l-4.118-12.683-4.122 12.683h-13.336l10.79 7.836-4.121 12.683 10.789-7.836 10.786 7.836-4.123-12.683 10.791-7.836zM216.663 219.08l-4.117-12.683-4.123 12.683h-13.335l10.789 7.836-4.122 12.683 10.791-7.836 10.785 7.836-4.123-12.683 10.791-7.836zM212.546 160.624l-4.123 12.684h-13.335l10.789 7.835-4.122 12.683 10.791-7.835 10.785 7.835-4.123-12.683 10.791-7.835h-13.336zM156.183 114.85l-4.122 12.685h-13.336l10.79 7.836-4.121 12.683 10.789-7.836 10.786 7.836-4.123-12.683 10.791-7.836h-13.336zM212.546 114.85l-4.123 12.685h-13.335l10.789 7.836-4.122 12.683 10.791-7.836 10.785 7.836-4.123-12.683 10.791-7.836h-13.336z"/></g></svg><svg viewBox="0 0 95.667 95.667" id="login" xmlns="http://www.w3.org/2000/svg"><path d="M56.494 72.344L17.047 49.567a1.998 1.998 0 010-3.463l39.447-22.78a2.001 2.001 0 013 1.732v10.605h34.052a2 2 0 012 2v20.344a2 2 0 01-2 2H59.493v10.604a1.997 1.997 0 01-2 2c-.345 0-.69-.088-.999-.265z" data-original="#000000" class="cactive-path" data-old_color="#000000" fill="#F0F0F0"/><path d="M14.892 0h40.749a2 2 0 012 2v6a2 2 0 01-2 2H14.892a4.776 4.776 0 00-4.771 4.771v66.125a4.777 4.777 0 004.771 4.771h40.749a2 2 0 012 2v6a2 2 0 01-2 2H14.892C6.746 95.667.121 89.04.121 80.896V14.772C.121 6.627 6.747 0 14.892 0z" data-original="#000000" class="cactive-path" data-old_color="#000000" fill="#F0F0F0"/></svg><svg viewBox="0 0 95.667 95.667" id="login-active" xmlns="http://www.w3.org/2000/svg"><path d="M56.494 72.344L17.047 49.567a1.998 1.998 0 010-3.463l39.447-22.78a2.001 2.001 0 013 1.732v10.605h34.052a2 2 0 012 2v20.344a2 2 0 01-2 2H59.493v10.604a1.997 1.997 0 01-2 2c-.345 0-.69-.088-.999-.265z" data-original="#000000" class="dactive-path" data-old_color="#000000" fill="#2A7DFA"/><path d="M14.892 0h40.749a2 2 0 012 2v6a2 2 0 01-2 2H14.892a4.776 4.776 0 00-4.771 4.771v66.125a4.777 4.777 0 004.771 4.771h40.749a2 2 0 012 2v6a2 2 0 01-2 2H14.892C6.746 95.667.121 89.04.121 80.896V14.772C.121 6.627 6.747 0 14.892 0z" data-original="#000000" class="dactive-path" data-old_color="#000000" fill="#2A7DFA"/></svg><svg viewBox="0 0 128 128" data-name="Layer 1" id="rus" xmlns="http://www.w3.org/2000/svg"><path d="M12 27.751h104v72.497H12z" fill="#0b55b1"/><path d="M12 27.751h104v24.166H12z" fill="#f0f0f0"/><path d="M12 76.083h104v24.166H12z" fill="#d60a2e"/></svg><svg viewBox="0 0 299.99 299.99" id="support" xmlns="http://www.w3.org/2000/svg"><path d="M149.995 0C67.158 0 0 67.156 0 149.995S67.158 299.99 149.995 299.99c82.839 0 149.995-67.156 149.995-149.995S232.834 0 149.995 0zM89.481 211.219l-37.176 9.959 10.177-37.973a81.277 81.277 0 01-11.051-40.997c0-45.074 36.541-81.618 81.62-81.618 45.071 0 81.615 36.544 81.615 81.618s-36.544 81.62-81.615 81.62c-16.028.004-30.96-4.629-43.57-12.609zm158.279 25.757l-33.818-9.059a73.896 73.896 0 01-39.63 11.474 73.893 73.893 0 01-29.248-5.999c45.064-5.9 79.981-44.527 79.981-91.177a91.477 91.477 0 00-8.216-37.926c19.182 13.427 31.73 35.67 31.73 60.853a73.935 73.935 0 01-10.05 37.293l9.251 34.541z" class="factive-path" fill="#F0F0F0"/></svg><svg viewBox="0 0 299.99 299.99" id="support-active" xmlns="http://www.w3.org/2000/svg"><path d="M149.995 0C67.158 0 0 67.156 0 149.995S67.158 299.99 149.995 299.99c82.839 0 149.995-67.156 149.995-149.995S232.834 0 149.995 0zM89.481 211.219l-37.176 9.959 10.177-37.973a81.277 81.277 0 01-11.051-40.997c0-45.074 36.541-81.618 81.62-81.618 45.071 0 81.615 36.544 81.615 81.618s-36.544 81.62-81.615 81.62c-16.028.004-30.96-4.629-43.57-12.609zm158.279 25.757l-33.818-9.059a73.896 73.896 0 01-39.63 11.474 73.893 73.893 0 01-29.248-5.999c45.064-5.9 79.981-44.527 79.981-91.177a91.477 91.477 0 00-8.216-37.926c19.182 13.427 31.73 35.67 31.73 60.853a73.935 73.935 0 01-10.05 37.293l9.251 34.541z" class="gactive-path" fill="#2A7DFA"/></svg></svg>