<?xml version="1.0" encoding="iso-8859-1"?><!DOCTYPE svg PUBLIC "-//W3C//DTD SVG 1.1//EN" "http://www.w3.org/Graphics/SVG/1.1/DTD/svg11.dtd"><svg viewBox="0 0 596 596" xmlns="http://www.w3.org/2000/svg" xmlns:xlink="http://www.w3.org/1999/xlink"><style>:root>svg{display:none}:root>svg:target{display:block}</style><svg viewBox="0 0 424.98 424.98" id="balance" xmlns="http://www.w3.org/2000/svg"><path d="M241.395 282.304c-1.587-1.738-3.595-3.038-5.67-4.121-4.518-2.356-9.459-3.785-14.365-5.075v38.016c7.963-.9 17.105-3.79 21.286-11.224 1.996-3.551 2.393-7.914 1.58-11.867-.441-2.142-1.352-4.108-2.831-5.729z"/><path d="M242.604 299.973l.042-.073a4.74 4.74 0 00-.042.073zM184.009 221.532c-1.369 1.999-2.228 4.27-2.465 6.684-.237 2.419-.104 5.11.815 7.387.875 2.17 2.708 3.772 4.6 5.062 2.123 1.444 4.458 2.572 6.836 3.528 1.995.803 4.239 1.571 6.658 2.313v-34.4c-6.111 1.304-12.788 4.088-16.444 9.426zM242.804 299.619c-.05.089-.104.182-.157.28.062-.114.111-.198.157-.28zM243.004 299.263c.013-.024.015-.026 0 0z"/><path d="M234.753 92.469c32.329-27.158 53.931-88.341 40.637-91.017-17.664-3.557-56.022 12.04-74.562 14.788-26.296 3.175-54.936-28.515-71.012-10.851-13.071 14.362 9.371 66.592 44.482 89.346-104.752 51.484-251.988 309.938 4.873 328.691 355.411 25.949 177.444-280.787 55.582-330.957zm30.523 203.829c-1.093 10.076-6.433 19.188-14.415 25.374-8.428 6.532-18.999 9.57-29.502 10.421v11.133c0 2.979-1.301 5.86-3.531 7.832-3.065 2.712-7.569 3.381-11.289 1.667-3.673-1.69-6.086-5.457-6.086-9.499v-12.168a68.538 68.538 0 01-5.356-1.234c-9.816-2.697-18.921-7.954-25.572-15.732-3.313-3.877-6.014-8.276-7.882-13.025a47.162 47.162 0 01-1.304-3.783c-.345-1.157-.701-2.333-.824-3.539a10.46 10.46 0 011.137-5.889c1.938-3.707 6.022-5.946 10.192-5.574 4.104.364 7.701 3.212 8.993 7.124.398 1.205.668 2.44 1.115 3.632a23.292 23.292 0 001.607 3.431 26.647 26.647 0 004.59 5.875c3.694 3.559 8.399 5.872 13.304 7.248V268.23c-9.591-2.483-19.491-5.69-27.411-11.848-3.849-2.994-7.115-6.714-9.254-11.117-2.257-4.647-3.192-9.824-3.23-14.966-.039-5.221.953-10.396 3.131-15.153 2.04-4.454 4.977-8.453 8.578-11.768 7.7-7.087 17.928-11.04 28.187-12.492v-11.557c0-2.978 1.301-5.86 3.531-7.832 3.066-2.711 7.568-3.381 11.289-1.667 3.672 1.691 6.086 5.457 6.086 9.499v11.494c1.367.172 2.73.378 4.086.624 10.074 1.823 19.927 5.983 27.294 13.246a39.888 39.888 0 018.356 12.009 38.31 38.31 0 011.477 3.824c.396 1.213.794 2.462.983 3.728a10.467 10.467 0 01-.871 5.958c-1.772 3.788-5.746 6.2-9.927 6.021-4.108-.179-7.83-2.854-9.301-6.694-.438-1.142-.657-2.351-1.104-3.49a18.419 18.419 0 00-1.708-3.292c-1.308-2.02-3.003-3.752-4.938-5.179-4.19-3.094-9.272-4.706-14.35-5.607v39.582c6.035 1.445 12.075 3.021 17.857 5.301 8.739 3.446 17.02 8.73 21.79 17.062-.74-1.298-1.46-2.563.025.043 1.458 2.56.762 1.34.03.057 3.795 6.688 5.042 14.685 4.217 22.282z"/><path d="M242.493 300.169l-.156.278c.036-.063.09-.158.156-.278z"/></svg><svg viewBox="0 0 512 512" id="eng" xmlns="http://www.w3.org/2000/svg"><path fill="#f0f0f0" d="M0 85.331h512v341.337H0z"/><g fill="#d80027"><path d="M0 127.994h512v42.663H0zM0 213.331h512v42.663H0zM0 298.657h512v42.663H0zM0 383.994h512v42.663H0z"/></g><path fill="#2e52b2" d="M0 85.331h256v183.797H0z"/><g fill="#f0f0f0"><path d="M99.822 160.624l-4.123 12.684H82.363l10.791 7.835-4.123 12.683 10.791-7.835 10.784 7.835-4.122-12.683 10.791-7.835h-13.337zM103.938 219.08l-4.116-12.683-4.123 12.683H82.363l10.791 7.836-4.123 12.683 10.791-7.836 10.784 7.836-4.122-12.683 10.791-7.836zM47.577 219.08l-4.117-12.683-4.123 12.683H26.001l10.791 7.836-4.123 12.683 10.791-7.836 10.785 7.836-4.122-12.683 10.789-7.836zM43.46 160.624l-4.123 12.684H26.001l10.791 7.835-4.123 12.683 10.791-7.835 10.785 7.835-4.122-12.683 10.789-7.835H47.577zM99.822 114.85l-4.123 12.685H82.363l10.791 7.836-4.123 12.683 10.791-7.836 10.784 7.836-4.122-12.683 10.791-7.836h-13.337zM43.46 114.85l-4.123 12.685H26.001l10.791 7.836-4.123 12.683 10.791-7.836 10.785 7.836-4.122-12.683 10.789-7.836H47.577zM156.183 160.624l-4.122 12.684h-13.336l10.79 7.835-4.121 12.683 10.789-7.835 10.786 7.835-4.123-12.683 10.791-7.835h-13.336zM160.301 219.08l-4.118-12.683-4.122 12.683h-13.336l10.79 7.836-4.121 12.683 10.789-7.836 10.786 7.836-4.123-12.683 10.791-7.836zM216.663 219.08l-4.117-12.683-4.123 12.683h-13.335l10.789 7.836-4.122 12.683 10.791-7.836 10.785 7.836-4.123-12.683 10.791-7.836zM212.546 160.624l-4.123 12.684h-13.335l10.789 7.835-4.122 12.683 10.791-7.835 10.785 7.835-4.123-12.683 10.791-7.835h-13.336zM156.183 114.85l-4.122 12.685h-13.336l10.79 7.836-4.121 12.683 10.789-7.836 10.786 7.836-4.123-12.683 10.791-7.836h-13.336zM212.546 114.85l-4.123 12.685h-13.335l10.789 7.836-4.122 12.683 10.791-7.836 10.785 7.836-4.123-12.683 10.791-7.836h-13.336z"/></g></svg><svg viewBox="0 0 512 512" id="history" xmlns="http://www.w3.org/2000/svg"><path d="M90 287c-24.814 0-45 20.186-45 45s20.186 45 45 45 45-20.186 45-45-20.186-45-45-45zM120 377H60c-33.091 0-60 26.909-60 60v60c0 8.291 6.709 15 15 15h150c8.291 0 15-6.709 15-15v-60c0-33.091-26.909-60-60-60zM422 287c-24.814 0-45 20.186-45 45s20.186 45 45 45 45-20.186 45-45-20.186-45-45-45zM452 377h-60c-33.091 0-60 26.909-60 60v60c0 8.291 6.709 15 15 15h150c8.291 0 15-6.709 15-15v-60c0-33.091-26.909-60-60-60zM256 0H136C94.579 0 61 33.579 61 75v90c0 36.226 25.811 66.519 60 73.491v46.507c0 13.363 16.157 20.056 25.607 10.606L202.211 240H256c41.421 0 75-33.579 75-75V75c0-41.421-33.579-75-75-75zm-4.395 85.605l-60 60c-5.857 5.857-15.354 5.857-21.211 0l-30-30c-5.859-5.859-5.859-15.352 0-21.211 5.859-5.859 15.352-5.859 21.211 0L181 113.789l49.395-49.395c5.859-5.859 15.352-5.859 21.211 0s5.859 15.352-.001 21.211z"/><path d="M376 30h-25.532C357.023 43.693 361 58.835 361 75v90c0 34.354-16.824 64.631-42.411 83.8l46.804 46.804c9.45 9.45 25.607 2.757 25.607-10.606v-46.507c34.189-6.973 60-37.266 60-73.491v-60c0-41.421-33.579-75-75-75z"/></svg><svg viewBox="0 0 447.632 447" id="links" xmlns="http://www.w3.org/2000/svg"><path d="M231.816 447.05c34.23-4.863 64.239-40.59 83.121-93.35a406.317 406.317 0 00-83.12-9.786zm0 0M286.504 438.66c2.023-.586 4.039-1.176 6.039-1.824 1.687-.543 3.352-1.129 5.016-1.711a203.39 203.39 0 005.882-2.121c1.664-.633 3.313-1.305 4.965-1.977 1.906-.8 3.809-1.597 5.692-2.398a240.401 240.401 0 0010.422-4.922c1.601-.816 3.199-1.648 4.8-2.504 1.793-.96 3.575-1.941 5.344-2.95a203.403 203.403 0 004.703-2.753c1.735-1.066 3.461-2.133 5.176-3.2a191.535 191.535 0 004.578-2.991 221.095 221.095 0 005.008-3.504 417.693 417.693 0 004.422-3.2 365.942 365.942 0 004.847-3.793c1.426-1.136 2.848-2.265 4.25-3.433 1.598-1.328 3.13-2.703 4.68-4.078 1.36-1.207 2.727-2.403 4.055-3.64 1.527-1.427 3.015-2.903 4.504-4.368 1.289-1.273 2.593-2.527 3.855-3.832.235-.242.457-.504.7-.754a268.883 268.883 0 00-54.817-21.094 198.517 198.517 0 01-51.129 83.024c.649-.168 1.297-.305 1.945-.473 1.711-.48 3.391-1.008 5.063-1.504zm0 0M447.633 231.684H351.71a414.882 414.882 0 01-16.152 110.68 278.228 278.228 0 0160.714 24.16 223.51 223.51 0 0051.36-134.84zm0 0M231.816 215.684h103.895a400.208 400.208 0 00-15.75-106.743 421.384 421.384 0 01-88.145 10.512zm0 0M231.816.316v103.137a406.589 406.589 0 0083.121-9.785C296.055 40.906 266.048 5.18 231.817.316zm0 0M231.816 327.914a421.648 421.648 0 0188.145 10.516 400.236 400.236 0 0015.75-106.746H231.816zm0 0M396.273 80.844a278.228 278.228 0 01-60.714 24.16 414.882 414.882 0 0116.152 110.68h95.922a223.577 223.577 0 00-51.36-134.84zm0 0M385.465 68.707c-.235-.238-.457-.496-.688-.742-1.265-1.305-2.578-2.563-3.867-3.832-1.484-1.465-2.965-2.945-4.496-4.367-1.324-1.235-2.695-2.403-4.055-3.633-1.55-1.375-3.101-2.762-4.695-4.09-1.383-1.168-2.8-2.285-4.207-3.406a171.24 171.24 0 00-4.89-3.825 220.477 220.477 0 00-4.383-3.199 192.844 192.844 0 00-5.055-3.547 200.251 200.251 0 00-4.535-2.957 190.441 190.441 0 00-5.219-3.257 223.26 223.26 0 00-4.664-2.727 220.848 220.848 0 00-5.39-2.984c-1.602-.801-3.2-1.672-4.801-2.473-1.84-.93-3.696-1.824-5.598-2.703a174.071 174.071 0 00-4.875-2.227c-1.895-.84-3.809-1.597-5.719-2.398a225.094 225.094 0 00-4.953-1.969 191.214 191.214 0 00-5.879-2.117 210.272 210.272 0 00-5.016-1.715c-2-.648-4-1.238-6.054-1.832-1.664-.488-3.336-.984-5.02-1.43-.644-.175-1.3-.312-1.949-.48a198.532 198.532 0 0151.129 83.023 268.485 268.485 0 0054.879-21.113zm0 0M0 215.684h95.922a415.035 415.035 0 0116.148-110.68 277.885 277.885 0 01-60.71-24.16A223.519 223.519 0 000 215.684zm0 0M215.816 447.05V343.915a406.589 406.589 0 00-83.12 9.785c18.878 52.762 48.89 88.488 83.12 93.352zm0 0M215.816 231.684H111.922a400.079 400.079 0 0015.75 106.746 421.097 421.097 0 0188.144-10.516zm0 0M215.816.316c-34.23 4.864-64.242 40.59-83.12 93.352a406.045 406.045 0 0083.12 9.785zm0 0M215.816 119.453a421.384 421.384 0 01-88.144-10.512 400.05 400.05 0 00-15.75 106.743h103.894zm0 0M168.113 6.79c-.648.167-1.297.304-1.945.472-1.695.453-3.367.957-5.055 1.445-2.008.586-4 1.176-6.015 1.816-1.7.551-3.371 1.137-5.043 1.72-1.957.69-3.918 1.378-5.856 2.112-1.672.641-3.32 1.305-4.976 1.985-1.903.8-3.809 1.601-5.688 2.398-1.648.723-3.277 1.48-4.91 2.242a223.908 223.908 0 00-5.512 2.68 228.526 228.526 0 00-10.137 5.457 149.244 149.244 0 00-4.718 2.75c-1.738 1.047-3.457 2.13-5.168 3.2-1.54.984-3.067 1.976-4.578 3a221.095 221.095 0 00-5.008 3.503 403.614 403.614 0 00-4.426 3.203c-1.637 1.23-3.2 2.512-4.848 3.79-1.421 1.136-2.855 2.265-4.246 3.44-1.601 1.321-3.12 2.688-4.664 4.056-1.367 1.218-2.746 2.402-4.082 3.664-1.52 1.418-3 2.89-4.484 4.351-1.29 1.274-2.602 2.531-3.867 3.84-.23.242-.453.508-.696.754a268.581 268.581 0 0054.817 21.098 198.45 198.45 0 0151.105-82.977zm0 0M66.719 383.234c1.488 1.465 2.969 2.946 4.496 4.371 1.328 1.23 2.695 2.399 4.058 3.63 1.551 1.378 3.102 2.761 4.696 4.09 1.383 1.16 2.793 2.28 4.207 3.405 1.601 1.297 3.199 2.586 4.894 3.833 1.442 1.082 2.907 2.128 4.371 3.203 1.672 1.199 3.36 2.398 5.063 3.55a214.813 214.813 0 004.535 2.961c1.73 1.11 3.457 2.2 5.219 3.254 1.543.93 3.101 1.84 4.664 2.73a208.275 208.275 0 005.39 2.981c1.598.801 3.2 1.672 4.801 2.473 1.84.93 3.696 1.824 5.598 2.707 1.601.754 3.226 1.496 4.875 2.223 1.894.84 3.805 1.597 5.719 2.398 1.648.672 3.289 1.336 4.953 1.969 1.941.746 3.91 1.441 5.879 2.12 1.664.583 3.328 1.169 5.015 1.712 2 .648 4 1.242 6.055 1.832 1.664.488 3.336.984 5.016 1.433.648.176 1.304.313 1.953.48a198.57 198.57 0 01-51.13-83.027 268.607 268.607 0 00-54.816 21.106c.235.238.458.496.692.742 1.2 1.297 2.492 2.555 3.797 3.824zm0 0M51.36 366.523a278.275 278.275 0 0160.71-24.16 415.035 415.035 0 01-16.148-110.68H0a223.552 223.552 0 0051.36 134.84zm0 0"/></svg><svg viewBox="0 0 95.667 95.667" id="login" xmlns="http://www.w3.org/2000/svg"><path d="M56.494 72.344L17.047 49.567a1.998 1.998 0 010-3.463l39.447-22.78a2.001 2.001 0 013 1.732v10.605h34.052a2 2 0 012 2v20.344a2 2 0 01-2 2H59.493v10.604a1.997 1.997 0 01-2 2c-.345 0-.69-.088-.999-.265z" data-original="#000000" class="eactive-path"/><path d="M14.892 0h40.749a2 2 0 012 2v6a2 2 0 01-2 2H14.892a4.776 4.776 0 00-4.771 4.771v66.125a4.777 4.777 0 004.771 4.771h40.749a2 2 0 012 2v6a2 2 0 01-2 2H14.892C6.746 95.667.121 89.04.121 80.896V14.772C.121 6.627 6.747 0 14.892 0z" data-original="#000000" class="eactive-path"/></svg><svg viewBox="0 0 511.626 511.626" id="mail" xmlns="http://www.w3.org/2000/svg"><path d="M49.106 178.729c6.472 4.567 25.981 18.131 58.528 40.685 32.548 22.554 57.482 39.92 74.803 52.099 1.903 1.335 5.946 4.237 12.131 8.71 6.186 4.476 11.326 8.093 15.416 10.852 4.093 2.758 9.041 5.852 14.849 9.277 5.806 3.422 11.279 5.996 16.418 7.7 5.14 1.718 9.898 2.569 14.275 2.569h.575c4.377 0 9.137-.852 14.277-2.569 5.137-1.704 10.615-4.281 16.416-7.7 5.804-3.429 10.752-6.52 14.845-9.277 4.093-2.759 9.229-6.376 15.417-10.852 6.184-4.477 10.232-7.375 12.135-8.71 17.508-12.179 62.051-43.11 133.615-92.79 13.894-9.703 25.502-21.411 34.827-35.116 9.332-13.699 13.993-28.07 13.993-43.105 0-12.564-4.523-23.319-13.565-32.264-9.041-8.947-19.749-13.418-32.117-13.418H45.679c-14.655 0-25.933 4.948-33.832 14.844C3.949 79.562 0 91.934 0 106.779c0 11.991 5.236 24.985 15.703 38.974 10.466 13.99 21.604 24.983 33.403 32.976z"/><path d="M483.072 209.275c-62.424 42.251-109.824 75.087-142.177 98.501-10.849 7.991-19.65 14.229-26.409 18.699-6.759 4.473-15.748 9.041-26.98 13.702-11.228 4.668-21.692 6.995-31.401 6.995h-.578c-9.707 0-20.177-2.327-31.405-6.995-11.228-4.661-20.223-9.229-26.98-13.702-6.755-4.47-15.559-10.708-26.407-18.699-25.697-18.842-72.995-51.68-141.896-98.501C17.987 202.047 8.375 193.762 0 184.437v226.685c0 12.57 4.471 23.319 13.418 32.265 8.945 8.949 19.701 13.422 32.264 13.422h420.266c12.56 0 23.315-4.473 32.261-13.422 8.949-8.949 13.418-19.694 13.418-32.265V184.437c-8.186 9.132-17.7 17.417-28.555 24.838z"/></svg><svg viewBox="0 0 512 512" id="news" xmlns="http://www.w3.org/2000/svg"><path d="M105.072 256c8.284 0 15.023-6.74 15.023-15.024s-6.739-15.024-15.023-15.024-15.024 6.74-15.024 15.024S96.788 256 105.072 256z"/><path d="M0 451.144h512v-300.24H0zm240.18-255.192h211.784v30H240.18zm0 60.048h211.784v30H240.18zm0 60.048h211.784v30H240.18zm0 60.048h211.784v30H240.18zm-60.048-180.144h30.024v30h-30.024zm0 60.048h30.024v30h-30.024zm0 60.048h30.024v30h-30.024zm0 60.048h30.024v30h-30.024zm-75.06-180.144c24.826 0 45.023 20.198 45.023 45.024S129.898 286 105.072 286s-45.024-20.198-45.024-45.024 20.198-45.024 45.024-45.024zm0 120.096c24.826 0 45.023 20.198 45.023 45.024 0 24.827-20.197 45.024-45.023 45.024s-45.024-20.198-45.024-45.024c0-24.827 20.198-45.024 45.024-45.024z"/><path d="M105.072 376.096c8.284 0 15.023-6.74 15.023-15.024s-6.739-15.024-15.023-15.024-15.024 6.74-15.024 15.024 6.74 15.024 15.024 15.024zM0 60.856h512v60.048H0z"/></svg><svg viewBox="0 0 60 60" id="payouts" xmlns="http://www.w3.org/2000/svg"><path d="M59.989 21c-.099-1.711-2.134-3.048-6.204-4.068.137-.3.214-.612.215-.936V9h-.017C53.625 3.172 29.743 3 27 3S.375 3.172.017 9H0v6.999c.005 1.9 2.457 3.387 6.105 4.494-.05.166-.08.335-.09.507H6v6.987C2.07 28.999.107 30.317.01 32H0v6.999c.003 1.323 1.196 2.445 3.148 3.38-.073.202-.12.409-.133.621H3v6.999c.008 3.326 7.497 5.391 15.818 6.355.061.012.117.037.182.037.019 0 .035-.01.054-.011 1.604.181 3.234.322 4.847.423.034.004.064.02.099.02.019 0 .034-.01.052-.011C26.1 56.937 28.115 57 30 57c1.885 0 3.9-.063 5.948-.188.018.001.034.011.052.011.035 0 .065-.017.099-.02a96.863 96.863 0 004.847-.423c.019 0 .035.01.054.01.065 0 .121-.025.182-.037 8.321-.964 15.809-3.03 15.818-6.357V43h-.016c-.07-1.226-1.115-2.249-3.179-3.104.126-.289.195-.589.195-.9V32.46c3.59-1.104 5.995-2.581 6-4.464V21h-.011zM7 18.674v-4.831c.934.252 1.938.482 3 .691v4.881l-.37-.078A42.126 42.126 0 017 18.674zm44.771-2.192l-.028-.006-.364.283c-.528.411-1.339.827-2.379 1.229v-4.757c1.189-.414 2.201-.873 3-1.376v4.138c0 .152-.08.316-.229.489zM25.175 38.983l.825.012v4.998c-.194-.002-.388-.002-.581-.005l-.26-.005c-.458-.008-.914-.019-1.367-.033l-.168-.006c-.545-.018-1.086-.041-1.623-.067v-4.992a104.147 104.147 0 003.174.098zm3.809-.003c1.007-.019 2.014-.05 3.016-.096v4.993a104.916 104.916 0 01-2.474.091c-.146.004-.293.006-.44.009-.357.007-.723.009-1.085.012v-4.995a113.474 113.474 0 00.983-.014zm5.682 4.728l-.666.05v-4.987a96.392 96.392 0 003-.243v4.966a81.624 81.624 0 01-2.334.214zM39 38.312a73.794 73.794 0 003-.422v4.91c-.942.166-1.943.319-3 .458v-4.946zm-21.481 5.236l-.304-.031-.215-.023v-4.965a99.56 99.56 0 003 .243v4.983a96.79 96.79 0 01-2.481-.207zM15 38.312v4.946a69.655 69.655 0 01-3-.458v-4.91c.968.157 1.969.299 3 .422zm29 4.102v-4.881a44.704 44.704 0 003-.691v4.831c-.891.257-1.894.506-3 .741zM25.175 15.983l.825.012v4.993a99.16 99.16 0 01-4-.114v-4.989a104.147 104.147 0 003.175.098zm3.809-.003c1.007-.019 2.014-.05 3.016-.096v4.989c-.17.008-.333.02-.504.028l-.043.002c-.671.03-1.355.052-2.048.068l-.324.007c-.356.007-.72.008-1.081.012v-4.995l.825-.012.159-.003zm6 12c1.007-.019 2.014-.05 3.016-.096v4.988c-1.314.065-2.65.101-4 .115v-4.992l.825-.012.159-.003zm-9.637 4.729c-.64-.05-1.265-.105-1.875-.166l-.392-.04c-.027-.003-.053-.007-.08-.009v-4.966a99.56 99.56 0 003 .243v4.984l-.248-.016-.405-.03zm-6.202-.717c-.396-.063-.768-.131-1.145-.197v-4.904c.968.157 1.969.298 3 .422v4.946a76.718 76.718 0 01-1.855-.267zm12.03-4.009l.825.012v4.993c-.487-.005-.978-.007-1.453-.018l-.222-.004a95.164 95.164 0 01-2.209-.083L28 32.878v-4.993a104.147 104.147 0 003.175.098zm10.067 4.678l-.107.009c-.373.031-.758.051-1.136.078V27.77a96.392 96.392 0 003-.243v4.961c-.58.062-1.16.123-1.757.173zM17 20.49v-4.962a99.56 99.56 0 003 .243v4.978a90.68 90.68 0 01-3-.259zm20-.002c-.966.102-1.966.191-3 .265v-4.982a96.392 96.392 0 003-.243v4.96zm2-5.176a73.794 73.794 0 003-.422v4.902c-.948.167-1.946.321-3 .46v-4.94zm5 4.095v-4.873a44.704 44.704 0 003-.691v4.82c-.896.261-1.905.51-3 .744zm-29-4.095v4.941c-.198-.026-.404-.047-.6-.074l-.376-.055a72.39 72.39 0 01-1.697-.265L12 19.801v-4.91c.968.156 1.969.298 3 .421zm1 11.221v4.873a42.01 42.01 0 01-3-.751v-4.813c.934.252 1.938.483 3 .691zm31.907 5.284a64.384 64.384 0 01-2.133.336c-.253.036-.516.067-.773.1v-4.941a73.794 73.794 0 003-.422v4.91l-.094.017zM11 25.231v4.751c-1.572-.607-2.586-1.227-2.916-1.779l-.067-.112c-.006-.031-.016-.064-.017-.095v-4.141c.799.503 1.811.962 3 1.376zm-1 12.302v4.881c-.918-.195-1.765-.4-2.536-.61-.122-.034-.248-.067-.367-.102A3.537 3.537 0 007 41.674v-4.831a44.72 44.72 0 003 .69zm3 11v4.881a43.562 43.562 0 01-3-.741v-4.831c.934.252 1.938.483 3 .691zm2 .358c.968.157 1.969.298 3 .422v4.946a69.655 69.655 0 01-3-.458v-4.91zm5 .637a99.56 99.56 0 003 .243v4.987a87.083 87.083 0 01-3-.263v-4.967zm5 .356a104.147 104.147 0 003.174.099l.825.012v4.999a101.034 101.034 0 01-4-.116v-4.994zm6 .11l.825-.012.159-.003c1.007-.019 2.014-.05 3.016-.096v4.993c-1.284.063-2.618.103-4 .116v-4.998zm6-.223a96.392 96.392 0 003-.243v4.966c-.961.101-1.961.19-3 .263v-4.986zm5-.459a73.794 73.794 0 003-.422v4.91c-.942.166-1.943.319-3 .458v-4.946zm5-.779a44.704 44.704 0 003-.691v4.831c-.891.257-1.894.506-3 .741v-4.881zm4.892-9.212l-.341.299c-.525.463-1.4.93-2.551 1.38v-4.768c1.189-.414 2.201-.873 3-1.376v4.138a.636.636 0 01-.108.327zm.672-8.525a46.66 46.66 0 01-2.326.568c-.077.017-.159.032-.237.049v-4.879a44.704 44.704 0 003-.691v4.831l-.437.122zM2 15.996v-4.141c.799.503 1.811.962 3 1.376v4.788c-1.945-.729-2.998-1.46-3-2.023zm0 23v-4.141c.799.503 1.811.962 3 1.376V41l-.571-.222-.012.012C2.847 40.139 2.002 39.5 2 38.996zm3 11v-4.141c.799.503 1.811.962 3 1.376v4.788c-1.945-.729-2.998-1.46-3-2.023zm47 2.023v-4.787c1.189-.414 2.201-.873 3-1.376v4.138c-.001.563-1.055 1.295-3 2.025zm3-22v-4.787c1.189-.414 2.201-.873 3-1.376v4.138c-.001.563-1.055 1.295-3 2.025z"/></svg><svg viewBox="0 0 477.867 477.867" id="rates" xmlns="http://www.w3.org/2000/svg"><path d="M460.8 119.467h-85.333v-102.4C375.467 7.641 367.826 0 358.4 0H17.067C7.641 0 0 7.641 0 17.067V409.6c0 37.703 30.564 68.267 68.267 68.267H409.6c37.703 0 68.267-30.564 68.267-68.267V136.533c0-9.425-7.641-17.066-17.067-17.066zM136.533 85.333h102.4c9.426 0 17.067 7.641 17.067 17.067s-7.641 17.067-17.067 17.067h-102.4c-9.426 0-17.067-7.641-17.067-17.067s7.642-17.067 17.067-17.067zm153.6 324.267h-204.8c-9.426 0-17.067-7.641-17.067-17.067s7.641-17.067 17.067-17.067h204.8c9.426 0 17.067 7.641 17.067 17.067s-7.641 17.067-17.067 17.067zm0-68.267h-204.8c-9.426 0-17.067-7.641-17.067-17.067s7.641-17.067 17.067-17.067h204.8c9.426 0 17.067 7.641 17.067 17.067s-7.641 17.067-17.067 17.067zm0-68.266h-204.8c-9.426 0-17.067-7.641-17.067-17.067s7.641-17.067 17.067-17.067h204.8c9.426 0 17.067 7.641 17.067 17.067s-7.641 17.067-17.067 17.067zm0-68.267h-204.8c-9.426 0-17.067-7.641-17.067-17.067s7.641-17.067 17.067-17.067h204.8c9.426 0 17.067 7.641 17.067 17.067s-7.641 17.067-17.067 17.067zm153.6 204.8c0 18.851-15.282 34.133-34.133 34.133s-34.133-15.282-34.133-34.133v-256h68.267v256z"/></svg><svg viewBox="0 0 80.13 80.13" id="referrals" xmlns="http://www.w3.org/2000/svg"><path d="M48.355 17.922c3.705 2.323 6.303 6.254 6.776 10.817a11.69 11.69 0 004.966 1.112c6.491 0 11.752-5.261 11.752-11.751 0-6.491-5.261-11.752-11.752-11.752-6.429.002-11.644 5.169-11.742 11.574zm-7.699 24.062c6.491 0 11.752-5.262 11.752-11.752s-5.262-11.751-11.752-11.751c-6.49 0-11.754 5.262-11.754 11.752s5.264 11.751 11.754 11.751zm4.985.801h-9.972c-8.297 0-15.047 6.751-15.047 15.048v12.195l.031.191.84.263c7.918 2.474 14.797 3.299 20.459 3.299 11.059 0 17.469-3.153 17.864-3.354l.785-.397h.084V57.833c.003-8.297-6.747-15.048-15.044-15.048zm19.443-12.132h-9.895a14.483 14.483 0 01-4.47 10.088c7.375 2.193 12.771 9.032 12.771 17.11v3.758c9.77-.358 15.4-3.127 15.771-3.313l.785-.398h.084V45.699c0-8.296-6.75-15.046-15.046-15.046zm-45.049-.8c2.299 0 4.438-.671 6.25-1.814a14.544 14.544 0 015.467-9.276c.012-.22.033-.438.033-.66 0-6.491-5.262-11.752-11.75-11.752-6.492 0-11.752 5.261-11.752 11.752 0 6.488 5.26 11.75 11.752 11.75zm10.554 10.888a14.492 14.492 0 01-4.467-10.032c-.367-.027-.73-.056-1.104-.056h-9.971C6.75 30.653 0 37.403 0 45.699v12.197l.031.188.84.265c6.352 1.983 12.021 2.897 16.945 3.185v-3.683c.002-8.078 5.396-14.915 12.773-17.11z"/></svg><svg viewBox="0 0 512 512" id="rules" xmlns="http://www.w3.org/2000/svg"><path d="M135.084 0v421.952h331.88V0zM409.47 289.386H192.578V72.494H409.47z"/><path d="M379.47 102.494H222.578v156.892H379.47zm-40.916 126.844h-75.048V132.53h30v66.808h45.048zM45.036 451.952h421.928V512H45.036zM45.036 0h60.048v421.952H45.036z"/></svg><svg viewBox="0 0 128 128" data-name="Layer 1" id="rus" xmlns="http://www.w3.org/2000/svg"><path d="M12 27.751h104v72.497H12z" fill="#0b55b1"/><path d="M12 27.751h104v24.166H12z" fill="#f0f0f0"/><path d="M12 76.083h104v24.166H12z" fill="#d60a2e"/></svg><svg viewBox="0 0 512 512" id="statistics" xmlns="http://www.w3.org/2000/svg"><path d="M76 240c12.102 0 23.055-4.855 31.148-12.652l44.403 22.199c-.223 1.808-.551 3.586-.551 5.453 0 24.813 20.188 45 45 45s45-20.188 45-45c0-6.926-1.703-13.41-4.512-19.277l60.235-60.235C302.59 178.297 309.074 180 316 180c24.813 0 45-20.188 45-45 0-4.672-.918-9.09-2.246-13.328L411.09 82.43C418.23 87.2 426.79 90 436 90c24.813 0 45-20.188 45-45S460.812 0 436 0s-45 20.188-45 45c0 4.672.918 9.09 2.246 13.328L340.91 97.57C333.77 92.8 325.21 90 316 90c-24.813 0-45 20.188-45 45 0 6.926 1.703 13.41 4.512 19.277l-60.235 60.235C209.41 211.703 202.926 210 196 210c-12.102 0-23.055 4.855-31.148 12.652l-44.403-22.199c.223-1.808.551-3.586.551-5.453 0-24.813-20.187-45-45-45s-45 20.188-45 45 20.188 45 45 45zm0 0"/><path d="M497 482h-16V165c0-8.29-6.71-15-15-15h-60c-8.29 0-15 6.71-15 15v317h-30V255c0-8.29-6.71-15-15-15h-60c-8.29 0-15 6.71-15 15v227h-30V375c0-8.29-6.71-15-15-15h-60c-8.29 0-15 6.71-15 15v107h-30V315c0-8.29-6.71-15-15-15H46c-8.29 0-15 6.71-15 15v167H15c-8.29 0-15 6.71-15 15s6.71 15 15 15h482c8.29 0 15-6.71 15-15s-6.71-15-15-15zm0 0"/></svg><svg viewBox="0 0 299.99 299.99" id="support" xmlns="http://www.w3.org/2000/svg"><path d="M149.995 0C67.158 0 0 67.156 0 149.995S67.158 299.99 149.995 299.99c82.839 0 149.995-67.156 149.995-149.995S232.834 0 149.995 0zM89.481 211.219l-37.176 9.959 10.177-37.973a81.277 81.277 0 01-11.051-40.997c0-45.074 36.541-81.618 81.62-81.618 45.071 0 81.615 36.544 81.615 81.618s-36.544 81.62-81.615 81.62c-16.028.004-30.96-4.629-43.57-12.609zm158.279 25.757l-33.818-9.059a73.896 73.896 0 01-39.63 11.474 73.893 73.893 0 01-29.248-5.999c45.064-5.9 79.981-44.527 79.981-91.177a91.477 91.477 0 00-8.216-37.926c19.182 13.427 31.73 35.67 31.73 60.853a73.935 73.935 0 01-10.05 37.293l9.251 34.541z"/></svg><svg viewBox="0 -31 512 512" id="telegram" xmlns="http://www.w3.org/2000/svg"><path d="M123.195 260.738l63.68 159.188 82.902-82.903L411.918 450 512 0 0 213.266zm242.5-131.629L208.98 272.051l-19.52 73.566-36.058-90.164zm0 0"/></svg><svg viewBox="0 0 490.648 490.648" id="vip" xmlns="http://www.w3.org/2000/svg"><path d="M309.195 245.43h-10.667v21.333h10.667c5.867 0 10.667-4.779 10.667-10.667s-4.8-10.666-10.667-10.666z"/><path d="M490.08 188.556c-1.323-3.84-4.693-6.613-8.704-7.147l-154.496-20.48-72.021-144.384c-1.792-3.605-5.504-5.888-9.536-5.888s-7.723 2.283-9.536 5.909l-72.043 144.363L9.27 181.409a10.69 10.69 0 00-8.704 7.147 10.656 10.656 0 002.56 10.965l113.301 113.301-30.869 154.39a10.705 10.705 0 003.989 10.581 10.643 10.643 0 0011.243 1.067l144.555-72.277L389.9 478.86a10.77 10.77 0 004.779 1.131 10.72 10.72 0 006.485-2.197 10.73 10.73 0 003.989-10.581l-30.869-154.389 113.301-113.301c2.815-2.861 3.797-7.127 2.495-10.967zM223.179 238.54l-32 85.333c-1.557 4.16-5.547 6.912-9.984 6.912s-8.427-2.752-9.984-6.912l-32-85.333c-2.091-5.525.704-11.669 6.229-13.739 5.483-2.027 11.669.725 13.739 6.229l22.016 58.709 22.016-58.709c2.069-5.525 8.235-8.277 13.739-6.229 5.525 2.069 8.298 8.192 6.229 13.739zm32.683 81.557c0 5.888-4.779 10.667-10.667 10.667s-10.667-4.779-10.667-10.667v-85.333c0-5.888 4.779-10.667 10.667-10.667s10.667 4.779 10.667 10.667zm53.333-32h-10.667v32c0 5.888-4.779 10.667-10.667 10.667s-10.667-4.779-10.667-10.667v-85.333c0-5.888 4.779-10.667 10.667-10.667h21.333c17.643 0 32 14.357 32 32 .001 17.664-14.356 32-31.999 32z"/></svg></svg>